<svg width="30" height="31" xmlns="http://www.w3.org/2000/svg" xmlns:xlink="http://www.w3.org/1999/xlink" xml:space="preserve" overflow="hidden"><defs><clipPath id="clip0"><rect x="4" y="0" width="30" height="31"/></clipPath></defs><g clip-path="url(#clip0)" transform="translate(-4 0)"><path d="M15 3.125C8.44163 3.125 3.125 8.44163 3.125 15 3.125 21.5584 8.44163 26.875 15 26.875 21.5584 26.875 26.875 21.5584 26.875 15 26.875 8.44163 21.5584 3.125 15 3.125ZM15 26.25C8.78678 26.25 3.75 21.2132 3.75 15 3.75 8.78678 8.78678 3.75 15 3.75 21.2132 3.75 26.25 8.78678 26.25 15 26.243 21.2103 21.2103 26.243 15 26.25Z" fill="#FFFFFF" transform="matrix(1 0 0 1.03333 4 0)"/><path d="M20.607 19.4919C18.1308 22.5885 13.6131 23.0915 10.5164 20.6153 10.1016 20.2836 9.72475 19.9068 9.393 19.4919 9.28497 19.3573 9.08825 19.3357 8.95362 19.4438 8.819 19.5518 8.79747 19.7485 8.9055 19.8831 11.5977 23.249 16.5088 23.795 19.8747 21.1027 20.325 20.7425 20.734 20.3335 21.0942 19.8831 21.2023 19.7485 21.1807 19.5518 21.0461 19.4438 20.9115 19.3357 20.7148 19.3573 20.6067 19.4919Z" fill="#FFFFFF" transform="matrix(1 0 0 1.03333 4 0)"/><path d="M23.2219 11.0344C22.7844 10.8844 20.9656 10.3156 19.5467 10.3156 18.3529 10.3156 15.6246 10.9219 14.9996 11.0533 14.3746 10.9221 11.6465 10.3156 10.4525 10.3156 9.1995 10.3792 7.96197 10.6212 6.77731 11.0344 6.72106 11.0531 6.68356 11.1094 6.66481 11.2063L6.66481 11.9815C6.65753 12.1185 6.71409 12.2512 6.81794 12.3408L7.04294 12.5127C7.08044 13.2692 7.18669 14.3883 7.49919 14.9572 7.93356 15.7137 9.27731 16.567 10.6429 16.567 13.0304 16.567 14.165 14.7477 14.6025 13.0817 14.6509 12.9011 14.8125 12.7739 14.9994 12.7692L15.0011 12.7692C15.1893 12.7692 15.3529 12.8985 15.3963 13.0817 15.8151 14.7477 16.9494 16.567 19.3559 16.567 20.7184 16.567 22.0653 15.7137 22.4996 14.9572 22.8403 14.407 22.9371 13.2692 22.9559 12.5127L23.1809 12.3221C23.2881 12.2349 23.3454 12.1004 23.334 11.9627L23.334 11.1875C23.3325 11.118 23.2877 11.0568 23.2219 11.0344ZM21.0496 11.107 18.2537 15.7668C18.0368 15.693 17.8295 15.5938 17.636 15.4712L20.3235 10.9922C20.5667 11.0215 20.8114 11.0611 21.0496 11.1069ZM19.6246 10.9421 17.143 15.0781C16.9755 14.9117 16.8252 14.7288 16.6944 14.5323L18.8188 10.992C19.0603 10.9616 19.3034 10.9443 19.5469 10.9404 19.5723 10.9404 19.5988 10.9416 19.6247 10.942ZM16.342 13.9048C16.2248 13.6473 16.1275 13.3812 16.0511 13.1088L17.1654 11.2517C17.4498 11.1991 17.7402 11.1482 18.023 11.1032ZM12.5106 11.1933 9.7465 15.8003C9.53278 15.7348 9.32522 15.6507 9.12622 15.5488L11.8091 11.0773C12.0382 11.1121 12.2744 11.1516 12.5106 11.1933ZM7.84416 14.0273C7.78009 13.712 7.73475 13.3932 7.70834 13.0725L8.87619 11.1261C9.13437 11.0793 9.39391 11.0403 9.65481 11.0094ZM7.28984 11.5219C7.537 11.4427 7.78672 11.3723 8.03778 11.3087L7.55341 12.1162 7.4225 12.0162 7.28997 11.915ZM8.12563 14.773 10.4228 10.9442C10.4379 10.9434 10.4528 10.9411 10.4678 10.9404 10.6907 10.9447 10.9132 10.9602 11.1344 10.9869L8.59441 15.2203C8.41825 15.0936 8.2605 14.9431 8.12563 14.773ZM10.3975 15.93 13.1667 11.3144C13.4108 11.3613 13.6446 11.4079 13.8576 11.4514L11.1909 15.8962C11.0098 15.9257 10.8266 15.9411 10.6431 15.9421 10.5611 15.9421 10.4792 15.9375 10.3976 15.93ZM15.0013 12.1442 14.9919 12.1442 14.984 12.1444C14.5197 12.1583 14.1194 12.4746 13.9983 12.9231 13.7776 13.7635 13.2596 15.0274 12.0873 15.6171L14.5055 11.5868 14.6667 11.6212 14.8712 11.6647 14.9997 11.6917 15.1282 11.6647 15.3328 11.6212C15.559 11.5729 15.92 11.4959 16.3409 11.4112L15.7227 12.4415C15.5308 12.2512 15.2715 12.1444 15.0013 12.1442ZM18.8956 15.9118 21.6944 11.2471C21.9455 11.3077 22.1748 11.3694 22.3709 11.4255L19.6732 15.9219C19.568 15.9347 19.4621 15.9415 19.3561 15.9423 19.2021 15.9417 19.0483 15.9315 18.8956 15.9118ZM21.9686 14.6283 21.9631 14.6371 21.958 14.6461C21.5999 15.1325 21.1039 15.5002 20.5344 15.7013L22.3226 12.7209C22.2839 13.6105 22.1525 14.3313 21.9686 14.6283Z" fill="#FFFFFF" transform="matrix(1 0 0 1.03333 4 0)"/></g></svg>