<svg width="31" height="31" xmlns="http://www.w3.org/2000/svg" xmlns:xlink="http://www.w3.org/1999/xlink" xml:space="preserve" overflow="hidden"><defs><clipPath id="clip0"><rect x="-69" y="16" width="31" height="31"/></clipPath></defs><g clip-path="url(#clip0)" transform="translate(69 -16)"><path d="M-53.5 19.2292C-60.277 19.2292-65.7708 24.723-65.7708 31.5-65.7708 38.277-60.277 43.7708-53.5 43.7708-46.723 43.7708-41.2292 38.277-41.2292 31.5-41.2292 24.723-46.723 19.2292-53.5 19.2292ZM-53.5 43.125C-59.9203 43.125-65.125 37.9203-65.125 31.5-65.125 25.0797-59.9203 19.875-53.5 19.875-47.0797 19.875-41.875 25.0797-41.875 31.5-41.8822 37.9173-47.0827 43.1178-53.5 43.125Z" fill="#FFFF00"/><path d="M-47.7061 36.1416C-50.2648 39.3415-54.9331 39.8612-58.133 37.3025-58.5617 36.9597-58.9511 36.5703-59.2939 36.1416-59.4055 36.0025-59.6088 35.9802-59.7479 36.0919-59.887 36.2035-59.9093 36.4068-59.7976 36.5459-57.0157 40.0239-51.9409 40.5882-48.4629 37.8061-47.9975 37.4339-47.5748 37.0113-47.2026 36.5459-47.091 36.4068-47.1132 36.2035-47.2523 36.0919-47.3914 35.9802-47.5947 36.0025-47.7064 36.1416Z" fill="#FFFF00"/><path d="M-45.0041 27.4022C-45.4561 27.2472-47.3355 26.6595-48.8018 26.6595-50.0353 26.6595-52.8546 27.2859-53.5004 27.4218-54.1463 27.2861-56.9653 26.6595-58.1991 26.6595-59.4939 26.7252-60.7726 26.9753-61.9968 27.4022-62.0549 27.4216-62.0937 27.4797-62.113 27.5798L-62.113 28.3808C-62.1206 28.5224-62.0621 28.6595-61.9548 28.7522L-61.7223 28.9298C-61.6835 29.7115-61.5738 30.8679-61.2508 31.4558-60.802 32.2374-59.4134 33.1192-58.0023 33.1192-55.5352 33.1192-54.3628 31.2393-53.9107 29.5177-53.8607 29.3311-53.6938 29.1997-53.5006 29.1948L-53.4989 29.1948C-53.3044 29.1948-53.1354 29.3284-53.0905 29.5177-52.6578 31.2393-51.4856 33.1192-48.9989 33.1192-47.591 33.1192-46.1992 32.2374-45.7504 31.4558-45.3984 30.8873-45.2983 29.7115-45.2789 28.9298L-45.0464 28.7328C-44.9356 28.6427-44.8764 28.5038-44.8882 28.3615L-44.8882 27.5604C-44.8898 27.4886-44.9361 27.4254-45.0041 27.4022ZM-47.2488 27.4772-50.1379 32.2923C-50.3619 32.2161-50.5761 32.1135-50.7761 31.9869L-47.999 27.3586C-47.7477 27.3889-47.4949 27.4298-47.2488 27.4772ZM-48.7213 27.3068-51.2856 31.5807C-51.4586 31.4088-51.6139 31.2198-51.7491 31.0167L-49.554 27.3584C-49.3043 27.3269-49.0531 27.3092-48.8016 27.3051-48.7753 27.3051-48.7479 27.3063-48.7212 27.3067ZM-52.1132 30.3682C-52.2344 30.1022-52.3349 29.8272-52.4139 29.5457L-51.2624 27.6268C-50.9686 27.5724-50.6685 27.5198-50.3762 27.4733ZM-56.0724 27.5664-58.9286 32.327C-59.1495 32.2593-59.3639 32.1723-59.5696 32.0671L-56.7972 27.4465C-56.5605 27.4825-56.3165 27.5233-56.0724 27.5664ZM-60.8944 30.4949C-60.9606 30.1691-61.0074 29.8396-61.0347 29.5083L-59.8279 27.497C-59.5611 27.4486-59.293 27.4084-59.0234 27.3764ZM-61.4672 27.9059C-61.2118 27.8241-60.9537 27.7514-60.6943 27.6856L-61.1948 28.5201-61.3301 28.4168-61.467 28.3121ZM-60.6035 31.2655-58.2297 27.309C-58.2142 27.3082-58.1988 27.3058-58.1832 27.3051-57.953 27.3095-57.7231 27.3255-57.4944 27.3531L-60.1191 31.7277C-60.3011 31.5967-60.4641 31.4412-60.6035 31.2655ZM-58.2559 32.461-55.3944 27.6916C-55.1421 27.74-54.9006 27.7881-54.6805 27.8332L-57.4361 32.426C-57.6232 32.4566-57.8125 32.4725-58.0021 32.4735-58.0869 32.4735-58.1715 32.4688-58.2559 32.461ZM-53.4987 28.549-53.5084 28.549-53.5165 28.5492C-53.9963 28.5636-54.41 28.8904-54.535 29.3538-54.7631 30.2222-55.2985 31.5284-56.5097 32.1377L-54.011 27.9731-53.8444 28.0086-53.6331 28.0535-53.5003 28.0814-53.3675 28.0535-53.1561 28.0086C-52.9224 27.9587-52.5494 27.8791-52.1144 27.7916L-52.7532 28.8562C-52.9515 28.6596-53.2195 28.5492-53.4987 28.549ZM-49.4746 32.4422-46.5825 27.622C-46.323 27.6846-46.086 27.7484-45.8834 27.8063L-48.671 32.4526C-48.7798 32.4658-48.8892 32.4729-48.9987 32.4737-49.1579 32.4731-49.3168 32.4626-49.4746 32.4422ZM-46.2992 31.1159-46.3048 31.125-46.3101 31.1343C-46.6801 31.6369-47.1926 32.0168-47.7811 32.2247L-45.9334 29.1449C-45.9733 30.0642-46.1091 30.809-46.2992 31.1159Z" fill="#FFFF00"/></g></svg>